<?xml version="1.0" encoding="utf-8"?>
<?xml-stylesheet type="text/xsl" href="rss1.xsl"?>
<rss version="2.0" xmlns:atom="http://www.w3.org/2005/Atom" xmlns:content="http://purl.org/rss/1.0/modules/content/" xmlns:dc="http://purl.org/dc/elements/1.1/" xmlns:media="http://search.yahoo.com/mrss/">
<channel>
 <title>Getty</title>
 <link>http://www.gettyimg.com/</link>
 <atom:link href="http://www.gettyimg.com/" rel="self" type="application/rss+xml" />

 
                <item>
                <title><![CDATA[【HD Live Performances】WEB-DL - Coldplay E-Wrk 2010 1080p AMZN WEB-DL DDP2.0 H.264-SiGLA]]></title>
                <link><![CDATA[https://sharemania.us/threads/coldplay-e-wrk-2010-1080p-amzn-web-dl-ddp2-0-h-264-sigla.243243/]]></link>
                <description><![CDATA[<article>
<blockquote class="messageText SelectQuoteContainer ugc baseHtml">
<div style="text-align: center"><img src="https://ptpimg.me/e51yyh.jpg" class="bbCodeImage LbImage" alt="[​IMG]" data-url="https://ptpimg.me/e51yyh.jpg" style="">​</div><br>
<div style="text-align: left">
<div class="bbCodeBlock bbCodeCode">
<div class="type">Code:</div>
<pre>General
Unique ID                                : 209075306337152023876832357775223140545 (0x9D4A7076A9ED51EA7B0653C7D8C5B0C1)
Complete name                            : Coldplay.E-Wrk.2010.1080p.AMZN.WEB-DL.DDP2.0.H.264-SiGLA.mkv
Format                                   : Matroska
Format version                           : Version 4
File size                                : 3.80 GiB
Duration                                 : 1 h 7 min
Overall bit rate                         : 8 074 kb/s
Movie name                               : Coldplay E-Wrk (2010)
Writing application                      : mkvmerge v82.0 ('SiGLA') 64-bit
Writing library                          : libebml v1.4.5 + libmatroska v1.7.1
Cover                                    : Yes
Attachments                              : cover.png

Video
ID                                       : 1
Format                                   : AVC
Format/Info                              : Advanced Video Codec
Format profile                           : High@L4
Format settings                          : CABAC / 2 Ref Frames
Format settings, CABAC                   : Yes
Format settings, Reference frames        : 2 frames
Format settings, GOP                     : M=1, N=24
Codec ID                                 : V_MPEG4/ISO/AVC
Duration                                 : 1 h 7 min
Bit rate mode                            : Constant
Bit rate                                 : 7 848 kb/s
Width                                    : 1 920 pixels
Height                                   : 1 080 pixels
Display aspect ratio                     : 16:9
Frame rate mode                          : Constant
Frame rate                               : 25.000 FPS
Color space                              : YUV
Chroma subsampling                       : 4:2:0
Bit depth                                : 8 bits
Scan type                                : Progressive
Bits/(Pixel*Frame)                       : 0.151
Stream size                              : 3.69 GiB (97%)
Language                                 : English
Default                                  : Yes
Forced                                   : No
Color primaries                          : BT.709
Transfer characteristics                 : BT.709
Matrix coefficients                      : BT.709

Audio
ID                                       : 2
Format                                   : E-AC-3
Format/Info                              : Enhanced AC-3
Commercial name                          : Dolby Digital Plus
Codec ID                                 : A_EAC3
Duration                                 : 1 h 7 min
Bit rate mode                            : Constant
Bit rate                                 : 224 kb/s
Channel(s)                               : 2 channels
Channel layout                           : L R
Sampling rate                            : 48.0 kHz
Frame rate                               : 31.250 FPS (1536 SPF)
Compression mode                         : Lossy
Stream size                              : 108 MiB (3%)
Language                                 : English
Service kind                             : Complete Main
Default                                  : Yes
Forced                                   : No

Text
ID                                       : 3
Format                                   : UTF-8
Codec ID                                 : S_TEXT/UTF8
Codec ID/Info                            : UTF-8 Plain Text
Duration                                 : 1 h 7 min
Bit rate                                 : 39 b/s
Count of elements                        : 647
Stream size                              : 19.2 KiB (0%)
Language                                 : English
Default                                  : No
Forced                                   : No
</pre>
</div></div><br>
<div class="bbCodeBlock bbCodeVfcHH HiddenContent">
<div class="attribution type">Hidden Content:</div>
<blockquote>You must either reply or click 'Like' to see the hidden information contained here.</blockquote>
</div>
<div class="messageTextEndMarker">&nbsp;</div>
</blockquote>
</article>]]></description>
                <author><![CDATA[-C.A.A]]></author>
                </item>

                
                <item>
                <title><![CDATA[【UPSCALED】Mr. Mister - Broken Wings [1080p AI Upscale | PCM 16-bit 48 kHz]]]></title>
                <link><![CDATA[https://sharemania.us/threads/mr-mister-broken-wings-1080p-ai-upscale-pcm-16-bit-48-khz.243244/]]></link>
                <description><![CDATA[<article>
<blockquote class="messageText SelectQuoteContainer ugc baseHtml">
<b><img src="https://images2.imgbox.com/f4/d8/SwqY7F28_o.jpg" class="bbCodeImage LbImage" alt="[​IMG]" data-url="https://images2.imgbox.com/f4/d8/SwqY7F28_o.jpg" style=""> <br>
<br>
Genre: <span style="color: rgb(0, 89, 179)">Rock, Pop</span><br>
Style: <span style="color: rgb(0, 89, 179)">Pop Rock, Soft Rock</span><br>
Year: <span style="color: rgb(0, 89, 179)">1985</span><br>
Source: <span style="color: rgb(0, 89, 179)">DVD<b>, 576i</b></span></b><br>
<br>
"<b>Broken Wings</b>" is a 1985 song recorded by American pop rock band Mr. Mister. It was released in June 1985 as the lead single from their second album <i>Welcome to the Real World</i>. The song peaked at number one on the Billboard Hot 100 in December 1985, where it remained for two weeks. It was released as the band was just about to embark on a US tour opening for Tina Turner. "Broken Wings" became the first of two consecutive number ones of the band on the American charts, the other chart-topper being "Kyrie". Outside of the United States, "Broken Wings" topped the charts in Canada, peaked within the top ten of the charts in Australia, Belgium (Flanders), the Netherlands, Norway, the Republic of Ireland, Switzerland, the United Kingdom and West Germany, and the top twenty of the charts in Austria, New Zealand, Spain and Sweden.<br>
<br>
The ballad was co-written with lyricist John Lang, who was inspired by Kahlil Gibran's novel Broken Wings. The song is a mix of synth, digitally delayed guitar, bass and drums. The song's hissing intro was an effect created by the sound of a crash cymbal played in reverse. Although the 1968 Beatles song, "Blackbird" contains an identical lyric, "Take these broken wings and learn to fly", Richard Page has described this as "a mindless unintentional reference" attributable to both compositions being influenced by the Gibran novel.<br>
<br>
The music video for "Broken Wings" features lead vocalist/bassist Richard Page driving through the desert in a classic Ford Thunderbird, the first allusion to birds. There is a scene where Page is sitting in a church when a Harris's Hawk flies in through the window and lands next to him on the pew and they exchange a gaze.<br>
The driving scenes in the video were shot at the oil fields near Los Angeles International Airport, and also along the Pacific Coast Highway in Palos Verdes. The church is the San Fernando Mission, a historic building in the Mission Hills district of Los Angeles.<br>
The black-and-white clip was directed by Oley Sassone, who would go on to direct episodes of Xena: Warrior Princess and Hercules: The Legendary Journeys. In our interview with Sassone, he explained: "The subtext of the story and what I wanted the audience to feel was our hero's own backstory in his mind. The tango dancers, juxtaposed with the images of him getting lost while driving, tossing a map and instead following the hawk overhead was, symbolically, his own soul, his own voice deep inside telling him to carry on - to lead him to a new path, a new beginning."<br>
<br>
<b>Release Info</b><br>
My second release of this classic. Now an upscale at request.<br>
The quality of best source that I could find is not great. This was the best result.<br>
The video track is upscaled with Topaz Video AI &amp; encoded to AVC and HEVC.<br>
The PCM track is the default DVD track and is left as is (16-bit 48 kHz).<br>
The timed lyrics are synced. Enable the subtitles to see the lyrics.<br>
<br>
<div class="ToggleTriggerAnchor bbCodeSpoilerContainer">
<button type="button" class="button bbCodeSpoilerButton ToggleTrigger Tooltip JsOnly" data-target="> .SpoilerTarget"><span>Spoiler: <span class="SpoilerTitle">Media Info</span></span></button>
<div class="SpoilerTarget bbCodeSpoilerText">
<div class="bbCodeBlock bbCodeCode">
<div class="type">Code:</div>
<pre>General
Unique ID                      : 114937307054725312065552307106756136409 (0x56781EC163C31CE0A3C6239EA1838DD9)
Complete name                  : Mr. Mister - Broken Wings H.265.mkv
Format                         : Matroska
Format version                 : Version 4 / Version 2
File size                      : 381 MiB
Duration                       : 4 min 46 s
Overall bit rate               : 11.1 Mb/s
Frame rate                     : 29.970 FPS
Encoded date                   : 2024-04-26 13:47:22 UTC
Writing application            : mkvmerge v83.0 ('Circle Of Friends') 64-bit
Writing library                : libebml v1.4.5 + libmatroska v1.7.1

Video
ID                             : 1
Format                         : HEVC
Format/Info                    : High Efficiency Video Coding
Format profile                 : Main 10@L4@Main
Codec ID                       : V_MPEGH/ISO/HEVC
Duration                       : 4 min 46 s
Bit rate                       : 9 602 kb/s
Width                          : 1 396 pixels
Height                         : 1 080 pixels
Display aspect ratio           : 1.293
Original display aspect ratio  : 1.292
Frame rate mode                : Constant
Frame rate                     : 29.970 (30000/1001) FPS
Color space                    : YUV
Chroma subsampling             : 4:2:0
Bit depth                      : 10 bits
Bits/(Pixel*Frame)             : 0.213
Stream size                    : 328 MiB (86%)
Default                        : Yes
Forced                         : No
Color range                    : Limited
Color primaries                : BT.601 PAL
Transfer characteristics       : BT.470 System B/G
Matrix coefficients            : BT.601

Audio
ID                             : 2
Format                         : PCM
Format settings                : Little / Signed
Codec ID                       : A_PCM/INT/LIT
Duration                       : 4 min 46 s
Bit rate mode                  : Constant
Bit rate                       : 1 536 kb/s
Channel(s)                     : 2 channels
Sampling rate                  : 48.0 kHz
Frame rate                     : 25.000 FPS (1920 SPF)
Bit depth                      : 16 bits
Delay relative to video        : 20 ms
Stream size                    : 52.5 MiB (14%)
Language                       : English
Default                        : Yes
Forced                         : No

Text
ID                             : 3
Format                         : UTF-8
Codec ID                       : S_TEXT/UTF8
Codec ID/Info                  : UTF-8 Plain Text
Duration                       : 4 min 3 s
Bit rate                       : 36 b/s
Frame rate                     : 0.168 FPS
Count of elements              : 41
Stream size                    : 1.08 KiB (0%)
Title                          : Lyrics
Language                       : English
Default                        : No
Forced                         : No
</pre>
</div></div>
</div><br>
<b>Note to the peeps @ RuTracker: Give credit if you post the work of someone else!</b><br>
- Hurby4 aka ADHDerby<br>
<br>
<div class="bbCodeBlock bbCodeVfcHH HiddenContent">
<div class="attribution type">Hidden Content:</div>
<blockquote>You must reply before you can see the hidden data contained here.</blockquote>
</div>
<div class="messageTextEndMarker">&nbsp;</div>
</blockquote>
</article>]]></description>
                <author><![CDATA[ADHDerby]]></author>
                </item>

                </channel></rss>